<svg width="67" height="22" viewBox="0 0 67 22" fill="none" xmlns="http://www.w3.org/2000/svg">
<path d="M10.2976 9.04474C10.174 8.65696 10.0078 8.30966 9.79901 8.00284C9.59446 7.69176 9.34943 7.42756 9.06392 7.21023C8.77841 6.98864 8.45241 6.82031 8.08594 6.70526C7.72372 6.5902 7.32528 6.53267 6.89062 6.53267C6.15341 6.53267 5.48864 6.7223 4.89631 7.10156C4.30398 7.48082 3.83523 8.03693 3.49006 8.76989C3.14915 9.49858 2.97869 10.3913 2.97869 11.4482C2.97869 12.5092 3.15128 13.4062 3.49645 14.1392C3.84162 14.8722 4.31463 15.4283 4.91548 15.8075C5.51634 16.1868 6.20028 16.3764 6.96733 16.3764C7.67898 16.3764 8.29901 16.2315 8.82741 15.9418C9.36009 15.652 9.77131 15.2429 10.0611 14.7145C10.3551 14.1818 10.5021 13.5554 10.5021 12.8352L11.0135 12.9311H7.26776V11.3011H12.4134V12.7905C12.4134 13.8899 12.179 14.8445 11.7102 15.6541C11.2457 16.4595 10.6023 17.0817 9.77983 17.5206C8.96165 17.9595 8.02415 18.179 6.96733 18.179C5.78267 18.179 4.7429 17.9062 3.84801 17.3608C2.95739 16.8153 2.26278 16.0419 1.7642 15.0405C1.26563 14.0348 1.01634 12.8416 1.01634 11.4609C1.01634 10.4169 1.16122 9.4794 1.45099 8.64844C1.74077 7.81747 2.14773 7.11222 2.67188 6.53267C3.20028 5.94886 3.82031 5.50355 4.53196 5.19673C5.24787 4.88565 6.02983 4.73011 6.87784 4.73011C7.58523 4.73011 8.24361 4.83452 8.85298 5.04332C9.46662 5.25213 10.0121 5.54829 10.4893 5.93182C10.9709 6.31534 11.3693 6.77131 11.6847 7.29972C12 7.82386 12.2131 8.40554 12.3239 9.04474H10.2976ZM18.9988 18.1982C18.0314 18.1982 17.1983 17.9915 16.4995 17.5781C15.8049 17.1605 15.2679 16.5746 14.8887 15.8203C14.5137 15.0618 14.3262 14.1733 14.3262 13.1548C14.3262 12.1491 14.5137 11.2628 14.8887 10.4957C15.2679 9.72869 15.7963 9.12997 16.4739 8.69957C17.1557 8.26918 17.9526 8.05398 18.8645 8.05398C19.4185 8.05398 19.9554 8.1456 20.4753 8.32884C20.9952 8.51207 21.4618 8.79972 21.8752 9.19176C22.2885 9.58381 22.6145 10.093 22.8532 10.7195C23.0918 11.3416 23.2111 12.098 23.2111 12.9886V13.6662H15.4064V12.2344H21.3382C21.3382 11.7315 21.236 11.2862 21.0314 10.8984C20.8269 10.5064 20.5392 10.1974 20.1685 9.97159C19.802 9.74574 19.3716 9.63281 18.8773 9.63281C18.3404 9.63281 17.8716 9.76491 17.4711 10.0291C17.0748 10.2891 16.7679 10.63 16.5506 11.0518C16.3375 11.4695 16.231 11.9233 16.231 12.4134V13.532C16.231 14.1882 16.3461 14.7464 16.5762 15.2067C16.8105 15.6669 17.1365 16.0185 17.5542 16.2614C17.9718 16.5 18.4597 16.6193 19.0179 16.6193C19.3801 16.6193 19.7104 16.5682 20.0087 16.4659C20.307 16.3594 20.5648 16.2017 20.7821 15.9929C20.9995 15.7841 21.1657 15.5263 21.2807 15.2195L23.0897 15.5455C22.9448 16.0781 22.6848 16.5447 22.3098 16.9453C21.9391 17.3416 21.4725 17.6506 20.91 17.8722C20.3517 18.0895 19.7147 18.1982 18.9988 18.1982ZM27.2429 12.1705V18H25.3317V8.18182H27.1662V9.77983H27.2876C27.5135 9.25994 27.8672 8.84233 28.3487 8.52699C28.8345 8.21165 29.446 8.05398 30.1832 8.05398C30.8523 8.05398 31.4382 8.1946 31.9411 8.47585C32.4439 8.75284 32.8338 9.16619 33.1108 9.71591C33.3878 10.2656 33.5263 10.9453 33.5263 11.755V18H31.6151V11.9851C31.6151 11.2734 31.4297 10.7173 31.0589 10.3168C30.6882 9.91193 30.179 9.70952 29.5312 9.70952C29.0881 9.70952 28.6939 9.8054 28.3487 9.99716C28.0078 10.1889 27.7372 10.4702 27.5369 10.8409C27.3409 11.2074 27.2429 11.6506 27.2429 12.1705ZM40.321 18.1982C39.3537 18.1982 38.5206 17.9915 37.8217 17.5781C37.1271 17.1605 36.5902 16.5746 36.2109 15.8203C35.8359 15.0618 35.6484 14.1733 35.6484 13.1548C35.6484 12.1491 35.8359 11.2628 36.2109 10.4957C36.5902 9.72869 37.1186 9.12997 37.7962 8.69957C38.478 8.26918 39.2749 8.05398 40.1868 8.05398C40.7408 8.05398 41.2777 8.1456 41.7976 8.32884C42.3175 8.51207 42.7841 8.79972 43.1974 9.19176C43.6108 9.58381 43.9368 10.093 44.1754 10.7195C44.4141 11.3416 44.5334 12.098 44.5334 12.9886V13.6662H36.7287V12.2344H42.6605C42.6605 11.7315 42.5582 11.2862 42.3537 10.8984C42.1491 10.5064 41.8615 10.1974 41.4908 9.97159C41.1243 9.74574 40.6939 9.63281 40.1996 9.63281C39.6626 9.63281 39.1939 9.76491 38.7933 10.0291C38.397 10.2891 38.0902 10.63 37.8729 11.0518C37.6598 11.4695 37.5533 11.9233 37.5533 12.4134V13.532C37.5533 14.1882 37.6683 14.7464 37.8984 15.2067C38.1328 15.6669 38.4588 16.0185 38.8764 16.2614C39.294 16.5 39.782 16.6193 40.3402 16.6193C40.7024 16.6193 41.0327 16.5682 41.331 16.4659C41.6293 16.3594 41.8871 16.2017 42.1044 15.9929C42.3217 15.7841 42.4879 15.5263 42.603 15.2195L44.4119 15.5455C44.267 16.0781 44.0071 16.5447 43.6321 16.9453C43.2614 17.3416 42.7947 17.6506 42.2322 17.8722C41.674 18.0895 41.0369 18.1982 40.321 18.1982ZM46.6539 18V8.18182H48.5012V9.74148H48.6035C48.7825 9.21307 49.0978 8.79758 49.5495 8.49503C50.0055 8.18821 50.5211 8.0348 51.0964 8.0348C51.2157 8.0348 51.3564 8.03906 51.5183 8.04759C51.6845 8.05611 51.8145 8.06676 51.9082 8.07955V9.90767C51.8315 9.88636 51.6951 9.86293 51.4991 9.83736C51.3031 9.80753 51.1071 9.79261 50.911 9.79261C50.4593 9.79261 50.0566 9.88849 49.7029 10.0803C49.3535 10.2678 49.0765 10.5298 48.872 10.8665C48.6674 11.1989 48.5652 11.5781 48.5652 12.0043V18H46.6539ZM53.5621 18V8.18182H55.4734V18H53.5621ZM54.5273 6.6669C54.195 6.6669 53.9094 6.55611 53.6708 6.33452C53.4364 6.10866 53.3192 5.8402 53.3192 5.52912C53.3192 5.21378 53.4364 4.94531 53.6708 4.72372C53.9094 4.49787 54.195 4.38494 54.5273 4.38494C54.8597 4.38494 55.1431 4.49787 55.3775 4.72372C55.6161 4.94531 55.7354 5.21378 55.7354 5.52912C55.7354 5.8402 55.6161 6.10866 55.3775 6.33452C55.1431 6.55611 54.8597 6.6669 54.5273 6.6669ZM62.1802 18.1982C61.2299 18.1982 60.4118 17.983 59.7257 17.5526C59.0439 17.1179 58.5197 16.5192 58.1532 15.7564C57.7868 14.9936 57.6035 14.12 57.6035 13.1357C57.6035 12.1385 57.791 11.2585 58.166 10.4957C58.541 9.72869 59.0694 9.12997 59.7512 8.69957C60.4331 8.26918 61.2363 8.05398 62.161 8.05398C62.9068 8.05398 63.5716 8.19247 64.1554 8.46946C64.7392 8.74219 65.21 9.12571 65.568 9.62003C65.9302 10.1143 66.1454 10.6918 66.2136 11.3523H64.3535C64.2512 10.892 64.0169 10.4957 63.6504 10.1634C63.2882 9.83097 62.8024 9.66477 62.193 9.66477C61.6603 9.66477 61.1937 9.8054 60.7931 10.0866C60.3968 10.3636 60.0879 10.7599 59.8663 11.2756C59.6447 11.7869 59.5339 12.392 59.5339 13.0909C59.5339 13.8068 59.6426 14.4247 59.8599 14.9446C60.0772 15.4645 60.3841 15.8672 60.7804 16.1527C61.1809 16.4382 61.6518 16.581 62.193 16.581C62.5552 16.581 62.8833 16.5149 63.1774 16.3828C63.4757 16.2464 63.725 16.0526 63.9252 15.8011C64.1298 15.5497 64.2725 15.2472 64.3535 14.8935H66.2136C66.1454 15.5284 65.9387 16.0952 65.5936 16.5938C65.2484 17.0923 64.786 17.4844 64.2065 17.7699C63.6312 18.0554 62.9558 18.1982 62.1802 18.1982Z" fill="black"/>
</svg>
